Simulation
nRows=24
nColumns=15
endheader
time  TH_x TH_y TH_z SC_y  SC_z  SC_x  AC_y  AC_z  AC_x  GH_y  GH_z  GH_yy  EL_x  PS_y
1.55  0.000000  0.000000  0.000000  -33.67790682892877  5.156663131190991  53.456131972380106  55.71448446431187  -15.55515168523135  -23.8295808220495  20.772126429018545  54.519548494751334  -19.92024884805145  18.280252284422893  0.000000
1.581  0.000000  0.000000  0.000000  -33.76339043503121  5.250420203787974  53.58339766800379  55.79384087955053  -15.498566454269703  -23.616629536729786  20.680573267627008  54.99314552377577  -19.991252984881225  18.22958181675102  0.000000
1.612  0.000000  0.000000  0.000000  -33.83678029373101  5.3204990028204815  53.678160180292124  55.8662855188664  -15.449980863297096  -23.437115785893525  20.62065277767556  55.3783157399674  -20.07647957464287  18.183792830139314  0.000000
1.643  0.000000  0.000000  0.000000  -33.8971352503992  5.365824403057538  53.742129047518006  55.93134546636071  -15.40942707314002  -23.294119532382453  20.59213901986803  55.67318719025113  -20.176307689062757  18.143086375181117  0.000000
1.674  0.000000  0.000000  0.000000  -33.94365855854795  5.386678414720335  53.77553406070056  55.9881522524908  -15.37699361919312  -23.189714962102624  20.59475043422293  55.87668725124499  -20.291601967393245  18.107978435967993  0.000000
1.705  0.000000  0.000000  0.000000  -33.97603783375543  5.383744288780151  53.77783209487614  56.03595314028488  -15.352497961310926  -23.12393907558002  20.62781921160747  55.98793905186555  -20.422099923489217  18.078603077782237  0.000000
1.736  0.000000  0.000000  0.000000  -33.994348182667295  5.3573928471352605  53.748826156590695  56.07509245309091  -15.336262836787894  -23.096542157071067  20.690218054088746  56.00669014393357  -20.567855047299133  18.05478347729803  0.000000
1.767  0.000000  0.000000  0.000000  -33.99895467479363  5.307862180003132  53.68993540781915  56.10543126086395  -15.329401826641357  -23.107441096895908  20.781184527004324  55.932612340119334  -20.728313183717624  18.036397558190288  0.000000
1.798  0.000000  0.000000  0.000000  -33.99017576878626  5.235422491362815  53.600318166827115  56.12779814801169  -15.331088759335891  -23.154909516813486  20.89947381972365  55.76540225283199  -20.902753481717767  18.023289885306554  0.000000
1.829  0.000000  0.000000  0.000000  -33.96891481224567  5.140104909161729  53.47809523282203  56.14319367100036  -15.340006645146826  -23.23579631366748  21.043666633433837  55.50533820259317  -21.088986893522357  18.015828860404287  0.000000
1.8599999999999999  0.000000  0.000000  0.000000  -33.93661449081807  5.021892968100578  53.32365538745617  56.153215950304  -15.357756520065704  -23.347996021616154  21.212163867420028  55.15385939836744  -21.285768987986486  18.01429243754765  0.000000
1.891  0.000000  0.000000  0.000000  -33.895252604800746  4.881265174682244  53.13532470037217  56.15954683705973  -15.385279291115124  -23.48678653563337  21.402875646993433  54.713206944373425  -21.490562673181707  18.018717523650643  0.000000
1.922  0.000000  0.000000  0.000000  -33.84699039079132  4.718987532556019  52.90967215418824  56.16484321389336  -15.42262254160598  -23.645936774407843  21.613000220027068  54.18609726389369  -21.70084448163193  18.02908550384236  0.000000
1.953  0.000000  0.000000  0.000000  -33.79396109034241  4.536231396008152  52.64401748200458  56.170769906390944  -15.4701478512877  -23.818738903506627  21.839796629079146  53.57505487418451  -21.9131297171928  18.045163061079997  0.000000
1.984  0.000000  0.000000  0.000000  -33.73829219884393  4.334666989788861  52.33603864023432  56.179144202276355  -15.528657454814619  -23.99864689697901  22.08036408457037  52.88275587893108  -22.124273957936502  18.06682943833189  0.000000
2.015  0.000000  0.000000  0.000000  -33.68203782718213  4.115941704420425  51.98400012340109  56.19078344978042  -15.599244293378476  -24.179217963657184  22.331953449851515  52.112025381639675  -22.3301994511853  18.094129904135507  0.000000
2.046  0.000000  0.000000  0.000000  -33.626738797944746  3.8818642537176995  51.58645510606081  56.20630083156639  -15.683424294575888  -24.35490540572866  22.591668610326966  51.266264046287276  -22.52741492692186  18.127145032854212  0.000000
2.077  0.000000  0.000000  0.000000  -33.573648432562436  3.6341073392690393  51.1422301384356  56.225079444462516  -15.78184938228836  -24.520703331894207  22.857304922688645  50.34887279020152  -22.71180242940615  18.165986104923025  0.000000
2.108  0.000000  0.000000  0.000000  -33.52306069846153  3.3743778481268363  50.6503547422678  56.246071706143276  -15.894757553873243  -24.672727245959166  23.12659537453487  49.363615677399835  -22.880066327650233  18.210558089428805  0.000000
2.139  0.000000  0.000000  0.000000  -33.47473187863726  3.1043123298002926  50.1107978812508  56.26682616853075  -16.021534291709333  -24.808375564202912  23.398079570047  48.313757643699894  -23.028668496377957  18.260606907458996  0.000000
2.17  0.000000  0.000000  0.000000  -33.42776891917246  2.825813710275317  49.52366218631241  56.28440753645406  -16.161169247143135  -24.92593652749246  23.670276033732296  47.20247746219279  -23.154794360388475  18.315834313689997  0.000000
2.201  0.000000  0.000000  0.000000  -33.38098106380826  2.5408411178012145  48.88979615771019  56.29513759798334  -16.3120862671574  -25.024318491056796  23.942065528649906  46.03247063854487  -23.255207497735583  18.37595350364846  0.000000
2.232  0.000000  0.000000  0.000000  -33.33283370177934  2.2514077949934297  48.2107190127672  56.29557258218512  -16.472707622601998  -25.10303664857486  24.212875379215856  44.80652147159833  -23.327748423970192  18.441097109775082  0.000000
2.263  0.000000  0.000000  0.000000  -33.28169219416645  1.9595918012879692  47.48876438218874  56.28208099683103  -16.641426610515065  -25.161983031103908  24.482375705430645  43.52718685992897  -23.36981069345426  18.511339225283788  0.000000
